<svg xmlns="http://www.w3.org/2000/svg" viewBox="0 0 512 512" style="fill:#0d6efd;">
    <path d="M218.619,168h84c6.627,0,8.91,5.373,5.097,12l-3.451,6l-34.513,60l-1.726,3l-2.876,5c-2.553,4.439-7.194,8.306-11.972,10.381L217.735,326h21c24.853,0,56.589-20.147,70.885-45l13.805-24l6.327-11l34.513-60l4.602-8l4.602-8c9.705-16.871,9.08-21,3.366-32c19.368-11,24.894-17.129,34.598-34l33.938-59c14.296-24.853,5.738-45-19.115-45h-171l-62.124,108l-34.513,60L67.735,326h72l34.513-60h-12L218.619,168z M284.194,54h84c6.627,0,8.91,5.373,5.097,12l-17.257,30c-3.812,6.627-12.275,12-18.903,12h-84L284.194,54z"/>
    <path d="M421.795,226.399c5.016-10.589,5.736-20.093,2.709-27.219c-0.432-1.018-0.941-1.987-1.525-2.904c-1.167-1.834-2.634-3.459-4.388-4.845s-3.794-2.532-6.108-3.408c-1.157-0.438-2.382-0.809-3.675-1.109c-2.585-0.599-5.437-0.914-8.543-0.914h-27l-34.513,60c6.627,0,8.91,5.373,5.097,12l-39.115,68h60l54.646-95C420.274,229.447,421.078,227.912,421.795,226.399z"/>
    <path d="M239.16,440c-3.812,6.627-12.275,12-18.903,12h-72c-6.627,0-8.91-5.373-5.097-12l57.522-100l8.053-14l34.513-60l2.876-5l1.726-3c2.553-4.439,7.194-8.306,11.972-10.382L295.265,186h-21c-1.553,0-3.134,0.079-4.735,0.232c-12.009,1.152-25.195,6.519-37.056,14.511c-0.791,0.533-1.575,1.077-2.354,1.633c-3.113,2.222-6.119,4.624-8.971,7.174c-2.853,2.55-5.551,5.25-8.049,8.068c-1.249,1.409-2.447,2.848-3.59,4.313c-2.284,2.929-4.344,5.962-6.131,9.069l-17.257,30l-2.876,5l-34.513,60l-8.053,14L67.629,467c-14.296,24.853-5.738,45,19.115,45h126c24.853,0,56.589-20.147,70.885-45l54.646-95h-60L239.16,440z"/>
</svg>
